<?xml version="1.0" encoding="iso-8859-1"?>
<svg fill="#000000" version="1.1" id="Capa_1" xmlns="http://www.w3.org/2000/svg" xmlns:xlink="http://www.w3.org/1999/xlink" 
	 width="800px" height="800px" viewBox="0 0 324.333 324.333"
	 xml:space="preserve">
<g>
	<g>
		<path d="M103.418,324.088c18.17,2.589,39.607-15.109,47.266-64.918c7.656-49.808,60.051-48.575,60.051-48.575l-3.31-15.524
			l-19.278,3.977c-37.401,9.544-29.373-26.792-29.199-27.563l92.85-94.312c10.221-8.135,16.166-3.627,16.166-3.627
			c5.095-23.437,46.639-59.489,46.639-59.489s3.465,0.583,0.643-9.051c-2.817-9.634-10.186,3.495-15.426,3.707
			C294.574,8.925,293.988,0,293.988,0l-58.657,45.511c2.931,6.31,2.408,10.281,1.134,12.688l-3.097,3.144
			c-0.16,0.08-0.264,0.127-0.264,0.127l0.072,0.069l-86.094,87.448c-42.87-19.594-16.252-29.976-16.252-29.976l42.771-15.721
			l-14.069-11.516c0,0-72.755,18.416-65.434,32.959c7.325,14.54,19.563,28.298-6.669,42.074
			c-26.229,13.774-101.45,4.536-73.206,75.726C42.472,313.717,85.246,321.494,103.418,324.088z"/>
	</g>
</g>
</svg>