<?xml version="1.0" encoding="iso-8859-1"?>
<svg fill="#000000" version="1.1" id="Capa_1" xmlns="http://www.w3.org/2000/svg" xmlns:xlink="http://www.w3.org/1999/xlink" 
	 width="800px" height="800px" viewBox="0 0 485.453 485.453"
	 xml:space="preserve">
<g>
	<g>
		<path d="M458.634,58.643c1.318-0.525,2.873-2.028,3.318-3.376c2.974-8.958,0.922-19.208-6.208-26.339c0,0-0.345-0.344-0.761-0.761
			c-0.421-0.423-0.842,0.395-1.066,1.797c-0.733,4.546-2.404,8.522-4.132,10.247c-3.939,3.939-13.116,1.152-20.498-6.226
			c-7.377-7.38-10.167-16.557-6.228-20.496c1.735-1.729,5.707-3.4,10.251-4.134c1.402-0.224,2.208-0.639,1.796-1.064l-0.762-0.763
			c-7.097-7.095-17.296-9.169-26.225-6.248c-1.351,0.44-2.854,1.985-3.382,3.304c-1.579,3.948-2.998,7.812-3.84,10.891
			c-0.425,1.507-1.065,3.515-1.932,5.783l-4.296-4.292c1.579-1.767,2.257-3.371,0.192-5.432c-3.058-3.062-8.019-3.062-11.084,0
			c-3.058,3.06-3.058,8.023,0,11.083c2.067,2.066,3.679,1.391,5.434-0.196l6.332,6.335c-2.229,4.152-5.218,8.606-9.161,12.736
			l-6.308-6.314c1.587-1.767,2.26-3.366,0.2-5.432c-3.069-3.062-8.026-3.062-11.089,0c-3.065,3.062-3.065,8.022,0,11.084
			c2.064,2.064,3.676,1.388,5.431-0.194l5.995,5.987c-3.995,3.078-8.696,5.739-14.255,7.64l-6.331-6.335
			c1.587-1.768,2.264-3.366,0.192-5.432c-3.058-3.064-8.02-3.064-11.085,0c-3.058,3.062-3.058,8.023,0,11.084
			c2.068,2.062,3.679,1.389,5.434-0.198l3.046,3.047c-1.351,0.23-2.685,0.471-4.119,0.613c-1.419,0.142-2.16,1.28-1.747,2.637
			c4.532,14.651-0.573,23.873-5.058,28.757c-0.99-0.575-2.216-0.607-3.054,0.241l-1.631,1.633c-1.014,1.004-1.014,2.637,0,3.645
			l0.557,0.565l-95.951,97.477c-5.543-0.429-8.767-2.959-15.337-15.438c-8.386-15.932,7.544-53.644,0.84-85.493
			c-6.705-31.849-12.155-6.29-44.839,68.314c-32.699,74.586-115.246,79.75-115.246,79.75l0.068,0.134
			c-6.646,0.307-13.036,1.767-18.943,4.758c-36.832,18.684-42.038,84.529-9.013,149.646c33.027,65.104,87.807,107.676,127.47,86.147
			c6.975-3.778,12.684-9.429,17.162-16.474l0.014,0.032c11.994-14.937,22.375-47.104,34.941-85.659
			c12.575-38.556,29.336-46.939,49.033-54.897c19.696-7.959,33.525-17.605,43.168-32.276c9.638-14.659,5.454-28.076-6.284-19.696
			c-11.737,8.388-34.792,19.696-49.455,5.037c-14.66-14.671,4.191-44.43,4.191-44.43l2.016-5.244l103.191-104.811
			c1.01,0.816,2.46,0.844,3.395-0.1l1.635-1.633c0.825-0.824,0.806-2,0.276-2.974c4.873-4.492,14.098-9.618,28.753-5.099
			c1.358,0.418,2.501-0.329,2.642-1.739c0.144-1.445,0.381-2.779,0.613-4.14l3.009,3.016c-1.587,1.767-2.26,3.37-0.188,5.432
			c3.059,3.064,8.02,3.064,11.077,0c3.065-3.06,3.065-8.022,0-11.084c-2.063-2.064-3.671-1.388-5.427,0.199l-6.303-6.306
			c1.896-5.559,4.561-10.261,7.634-14.249l5.959,5.957c-1.587,1.767-2.265,3.37-0.192,5.436c3.058,3.058,8.019,3.058,11.076,0
			c3.07-3.064,3.07-8.027,0-11.087c-2.06-2.065-3.67-1.391-5.426,0.197l-6.264-6.264c4.124-3.941,8.58-6.935,12.736-9.161
			l6.299,6.302c-1.587,1.767-2.26,3.368-0.2,5.432c3.069,3.062,8.027,3.062,11.089,0c3.065-3.06,3.065-8.023,0-11.083
			c-2.064-2.066-3.675-1.391-5.431,0.196l-4.264-4.264c2.265-0.874,4.28-1.517,5.783-1.932
			C450.912,61.603,454.731,60.212,458.634,58.643z"/>
	</g>
</g>
</svg>